<?xml version="1.0" encoding="UTF-8" standalone="no"?>
<!-- Created with Inkscape (http://www.inkscape.org/) -->
<svg xmlns:dc="http://purl.org/dc/elements/1.1/" xmlns:cc="http://creativecommons.org/ns#" xmlns:rdf="http://www.w3.org/1999/02/22-rdf-syntax-ns#" xmlns:svg="http://www.w3.org/2000/svg" xmlns="http://www.w3.org/2000/svg" xmlns:sodipodi="http://sodipodi.sourceforge.net/DTD/sodipodi-0.dtd" xmlns:inkscape="http://www.inkscape.org/namespaces/inkscape" width="249.46429" height="253.75" id="svg2" version="1.1" inkscape:version="0.47 r22583" sodipodi:docname="Novo documento 1">
  <defs id="defs4">
    <inkscape:perspective sodipodi:type="inkscape:persp3d" inkscape:vp_x="0 : 526.18109 : 1" inkscape:vp_y="0 : 1000 : 0" inkscape:vp_z="744.09448 : 526.18109 : 1" inkscape:persp3d-origin="372.04724 : 350.78739 : 1" id="perspective10"/>
    <inkscape:perspective id="perspective2824" inkscape:persp3d-origin="0.5 : 0.33333333 : 1" inkscape:vp_z="1 : 0.5 : 1" inkscape:vp_y="0 : 1000 : 0" inkscape:vp_x="0 : 0.5 : 1" sodipodi:type="inkscape:persp3d"/>
    <inkscape:perspective id="perspective2840" inkscape:persp3d-origin="0.5 : 0.33333333 : 1" inkscape:vp_z="1 : 0.5 : 1" inkscape:vp_y="0 : 1000 : 0" inkscape:vp_x="0 : 0.5 : 1" sodipodi:type="inkscape:persp3d"/>
    <inkscape:perspective id="perspective3683" inkscape:persp3d-origin="0.5 : 0.33333333 : 1" inkscape:vp_z="1 : 0.5 : 1" inkscape:vp_y="0 : 1000 : 0" inkscape:vp_x="0 : 0.5 : 1" sodipodi:type="inkscape:persp3d"/>
  </defs>
  <sodipodi:namedview id="base" pagecolor="#ffffff" bordercolor="#666666" borderopacity="1.0" inkscape:pageopacity="0.0" inkscape:pageshadow="2" inkscape:zoom="0.7" inkscape:cx="120.05853" inkscape:cy="138.13919" inkscape:document-units="px" inkscape:current-layer="layer1" showgrid="false" showguides="true" inkscape:guide-bbox="true" inkscape:window-width="1600" inkscape:window-height="838" inkscape:window-x="-8" inkscape:window-y="-8" inkscape:window-maximized="1"/>
  <metadata id="metadata7">
    <rdf:RDF>
      <cc:Work rdf:about="">
        <dc:format>image/svg+xml</dc:format>
        <dc:type rdf:resource="http://purl.org/dc/dcmitype/StillImage"/>
        <dc:title/>
      </cc:Work>
    </rdf:RDF>
  </metadata>
  <g inkscape:label="Camada 1" inkscape:groupmode="layer" id="layer1" transform="translate(-197.85714,-235.04075)">
    <g id="g3660">
      <path sodipodi:nodetypes="ccccc" id="path2830" d="M 202.63407,413.52247 317.14286,488.79075 442.36607,421.0229 328.57143,351.6479 202.63407,413.52247 z" style="fill:#e6d7d7;fill-opacity:1;stroke:none"/>
      <path id="path2878" d="m 320,467.71932 90,-49.64285 0.35714,-104.64286 -68.21428,-15 -108.92857,42.14286 2.14285,72.5 L 320,467.71932 z" style="fill:#bb9191;fill-opacity:1;stroke:none"/>
      <path sodipodi:nodetypes="ccccc" id="path3656" d="m 405.36272,423.42803 -2.48172,-1.46585 1.42857,-106.259 2.57101,0 -1.51786,107.72485 z" style="fill:#3a211e;fill-opacity:1;stroke:none"/>
      <path id="path2854" d="m 309.021,463.25504 10.53571,7.14286 9.64286,-5.35715 0.17857,-85.71428 -19.82143,8.21428 -0.53571,75.71429 z" style="fill:#3a211e;fill-opacity:1;stroke:none"/>
      <path sodipodi:nodetypes="ccccc" id="path2856" d="m 405.35714,423.43361 8.57143,-5 3.03572,-94.82143 -12.379,-5.33614 0.77185,105.15757 z" style="fill:#3a211e;fill-opacity:1;stroke:none"/>
      <path id="path2858" d="m 230.71429,414.50504 -3.03572,-76.42857 11.96429,7.5 2.14285,73.39285 -2.32142,1.60715 -8.75,-6.07143 z" style="fill:#3a211e;fill-opacity:1;stroke:none"/>
      <path id="path2860" d="m 446.25,324.86218 -2.67857,6.25 -58.92857,-16.07143 -66.07143,78.03572 -117.14286,-69.46429 0.17857,-3.57143 112.32143,63.21429 68.39286,-79.64286 63.39286,19.28572 0.53571,1.96428 z" style="fill:#845252;fill-opacity:1;stroke:none"/>
      <path sodipodi:nodetypes="ccccc" id="path2862" d="m 366.33928,442.1836 0.0826,-74.99999 30.41714,-16.54286 -1.03543,75.29286 -29.46429,16.24999 z" style="fill:#845252;fill-opacity:1;stroke:none"/>
      <path id="path2874" d="m 303.21429,244.14789 17.85714,10.44643 21.33929,-10.17857" style="fill:none;stroke:none"/>
      <path sodipodi:nodetypes="cccccccccccccccccccccccccccccc" id="path2880" d="m 314.28571,387.54075 -116.42857,-69.10714 0.35715,-2.32143 14.64285,-13.39286 -1.07143,-3.39285 15.71429,-13.75 -0.35714,-2.85715 14.10714,-12.5 0,-3.21428 16.07143,-13.39286 -0.53572,-2.67857 8.03572,-7.85714 8.57143,1.60714 6.25,3.57143 10.71428,-0.17857 5.35715,2.67857 2.67857,-2.5 4.28571,0.53571 41.25,17.5 38.57143,21.96429 13.03572,7.14286 3.75,0.53571 20.53571,10.53571 7.14286,3.03572 9.82143,5.35714 8.39285,4.28572 2.14286,1.42857 -1.25,3.03571 -61.25,-16.07142 -70.53572,79.99999 z" style="fill:#e6d7d7;fill-opacity:1;stroke:none"/>
      <path id="path2870" d="m 303.21429,271.82647 17.5,9.10714 3.75,-1.78571 0,-6.25 7.67857,-8.39286 8.57143,1.25 0.17857,1.25 2.85714,0.53571 -1.25,-23.21428 -18.92857,-9.28572 -20.53572,9.28572 0.17858,27.5 z" style="fill:#895757;fill-opacity:1;stroke:none"/>
      <path id="path3654" d="m 405.1338,423.83319 -2.85702,-1.25002" style="fill:none;stroke:none"/>
      <path sodipodi:nodetypes="ccccc" id="path2876" d="m 323.66072,237.63004 -14.64286,6.60714 12.38614,7.129 15.02458,-7.21828 -12.76786,-6.51786 z" style="fill:#3a211e;fill-opacity:1;stroke:none"/>
    </g>
  </g>
</svg>